<?xml version="1.0" standalone="no"?>
<!DOCTYPE svg PUBLIC "-//W3C//DTD SVG 20010904//EN"
 "http://www.w3.org/TR/2001/REC-SVG-20010904/DTD/svg10.dtd">
<svg version="1.0" xmlns="http://www.w3.org/2000/svg"
 width="633.000000pt" height="394.000000pt" viewBox="0 0 633.000000 394.000000"
 preserveAspectRatio="xMidYMid meet">

<g transform="translate(0.000000,394.000000) scale(0.100000,-0.100000)"
fill="#000000" stroke="none">
<path d="M2780 2725 l0 -675 -462 0 c-427 0 -469 -2 -545 -20 -242 -58 -435
-235 -520 -475 -26 -74 -28 -91 -28 -225 1 -132 3 -152 28 -225 71 -203 206
-353 406 -449 135 -65 185 -71 551 -71 l325 0 0 160 0 160 -335 5 -335 5 -68
32 c-123 58 -218 172 -246 294 -46 198 71 404 266 468 61 20 84 21 513 21
l450 0 0 -569 c0 -509 2 -569 16 -575 9 -3 81 -6 160 -6 l144 0 1 28 c1 15 2
272 3 572 l1 545 405 0 405 0 63 -34 c71 -38 121 -93 153 -167 19 -42 23 -76
30 -234 5 -129 12 -202 24 -240 61 -197 224 -366 416 -430 70 -24 198 -43 255
-38 l39 3 3 161 2 162 -92 4 c-68 3 -105 10 -139 27 -63 30 -127 95 -157 161
-24 50 -27 71 -33 235 -6 154 -11 192 -33 260 -27 87 -80 182 -127 230 -29 31
-38 55 -20 55 18 0 173 155 211 209 55 82 97 170 122 258 33 111 32 323 0 436
-88 308 -330 537 -637 602 -57 12 -177 15 -642 15 l-573 0 0 -675z m1175 340
c111 -29 228 -113 296 -211 75 -110 107 -279 75 -403 -46 -179 -177 -319 -350
-374 -69 -21 -85 -22 -471 -22 l-400 0 -3 500 c-1 275 0 506 3 513 7 20 771
17 850 -3z"/>
</g>
</svg>
